<?xml version="1.0" encoding="utf-8"?>
<!-- Generator: Adobe Illustrator 16.0.0, SVG Export Plug-In . SVG Version: 6.00 Build 0)  -->
<!DOCTYPE svg PUBLIC "-//W3C//DTD SVG 1.1//EN" "http://www.w3.org/Graphics/SVG/1.1/DTD/svg11.dtd">
<svg version="1.1" id="Layer_1" xmlns="http://www.w3.org/2000/svg" xmlns:xlink="http://www.w3.org/1999/xlink" x="0px" y="0px"
	 width="421.25px" height="311px" viewBox="-23.75 -41.25 421.25 311" enable-background="new -23.75 -41.25 421.25 311"
	 xml:space="preserve">
<g>
	<path fill="#116A39" d="M121.875,70.561c-0.599-0.598-1.396-0.916-2.266-0.888c-0.361,0.017-8.979,0.406-14.699,6.131
		c-5.723,5.725-6.12,14.336-6.136,14.815l0.025,52.719c0,21.146-16.521,38.35-36.828,38.35c-20.31,0-36.831-17.201-36.831-38.35
		l-0.02-52.719c-0.015-0.479-0.412-9.09-6.137-14.815c-5.728-5.725-14.34-6.114-14.703-6.131c-0.87-0.028-1.67,0.29-2.264,0.888
		c-0.603,0.602-0.925,1.419-0.891,2.27c0.016,0.361,0.31,9.083,6.13,14.699c3.311,3.189,8.809,3.836,9.512,2.316
		c0.72-1.52-2.279-1.973-5.513-5.976c-1.783-2.208-3.077-5.076-3.386-7.451c2.154,0.583,4.802,1.675,6.813,3.684
		c4.014,4.01,4.355,10.579,4.355,10.646l0.024,50.743c0,24.497,19.243,44.428,42.904,44.428c23.655,0,42.909-19.931,42.909-44.428
		l-0.025-50.743c0.003-0.067,0.342-6.635,4.353-10.646c2.01-2.008,4.659-3.1,6.812-3.684c-0.306,2.375-1.596,5.243-3.383,7.451
		c-3.231,4.003-6.23,4.456-5.515,5.976c0.71,1.521,6.209,0.873,9.511-2.316c5.832-5.617,6.12-14.338,6.134-14.699
		C122.796,71.98,122.475,71.163,121.875,70.561z"/>
	<path fill="#8DC63F" d="M76.12,47.553c0-0.062,0.342-6.619,4.342-10.625c2.009-2.002,4.653-3.091,6.803-3.676
		c-0.302,2.369-1.6,5.231-3.377,7.438c-3.23,3.999-6.219,4.452-5.505,5.966c0.705,1.519,6.198,0.872,9.494-2.313
		c5.816-5.609,6.104-14.311,6.117-14.675c0.034-0.841-0.288-1.664-0.884-2.258c-0.6-0.602-1.4-0.918-2.266-0.89
		c-0.355,0.015-8.958,0.404-14.67,6.12c-5.713,5.715-6.105,14.312-6.122,14.794c0,0-0.028,83.25-0.028,95.871
		c0,5.297-3.631,9.608-8.09,9.608c-4.465,0-8.093-4.313-8.093-9.608c0-8.623,0-95.871,0-95.871
		c-0.015-0.482-0.405-9.079-6.117-14.794c-5.716-5.716-14.316-6.104-14.678-6.12c-0.863-0.028-1.666,0.288-2.264,0.89
		c-0.596,0.594-0.92,1.417-0.884,2.258c0.013,0.365,0.303,9.066,6.118,14.675c3.305,3.184,8.791,3.831,9.498,2.313
		c0.714-1.514-2.281-1.967-5.509-5.966c-1.775-2.207-3.065-5.069-3.375-7.438c2.144,0.585,4.797,1.673,6.801,3.676
		c4.003,4.006,4.345,10.563,4.345,10.625c0,0,0,80.983,0,93.906c0,8.643,6.345,15.675,14.157,15.675
		c7.804,0,14.156-7.032,14.156-15.671C76.09,130.068,76.12,47.553,76.12,47.553z"/>
	<path fill="#39B54A" d="M107.44,47.375c-0.599-0.601-1.404-0.918-2.262-0.89c-0.363,0.013-8.966,0.402-14.676,6.119
		c-5.71,5.712-6.105,14.307-6.12,14.791l0.005,1.782l-0.034,74.125c0,13.203-10.06,23.942-22.423,23.942
		c-12.364,0-22.424-10.739-22.424-23.942l0.007-75.907c-0.021-0.484-0.412-9.079-6.127-14.791
		c-5.713-5.717-14.308-6.106-14.667-6.119c-0.866-0.028-1.671,0.29-2.267,0.89c-0.597,0.596-0.918,1.412-0.884,2.258
		c0.015,0.361,0.305,9.066,6.114,14.671c3.306,3.186,8.793,3.836,9.503,2.314c0.708-1.514-2.285-1.969-5.504-5.96
		c-1.787-2.208-3.076-5.074-3.385-7.441c2.148,0.582,4.8,1.672,6.801,3.676c4.009,4.007,4.351,10.566,4.351,10.629l-0.011,73.936
		c0,16.547,12.783,30.013,28.494,30.013s28.487-13.466,28.487-30.009l0.03-73.94c0.002-0.063,0.344-6.623,4.345-10.629
		c2.009-2.004,4.65-3.094,6.805-3.676c-0.314,2.367-1.6,5.233-3.383,7.441c-3.225,3.992-6.218,4.446-5.506,5.96
		c0.707,1.522,6.194,0.872,9.498-2.314c5.816-5.605,6.104-14.311,6.125-14.671C108.358,48.787,108.033,47.972,107.44,47.375z"/>
	<path fill="#8DC63F" d="M63.802,2.006c-0.956-1.03-2.759-1.03-3.711,0c-0.24,0.262-5.917,6.479-5.917,14.361
		c0,7.371,5.19,20.978,5.413,21.554c0.372,0.976,1.313,1.621,2.357,1.621c1.049,0,1.986-0.645,2.363-1.621
		c0.219-0.576,5.408-14.183,5.408-21.554C69.716,8.484,64.042,2.268,63.802,2.006z M61.948,29.223
		c-1.373-4.416-2.715-9.618-2.715-12.856c0-3.317,1.445-6.353,2.708-8.383c1.27,2.034,2.716,5.085,2.716,8.383
		C64.657,19.751,63.271,24.994,61.948,29.223z"/>
	<g>
		<path fill="#116A39" d="M367.101,127.676L393.2,86.958h-17.34l-20.645,32.338V50.331l-15.782,5.261v140.656h15.782v-58.446
			l22.982,58.446h18.119L367.101,127.676z"/>
		<path fill="#116A39" d="M174.451,85.747l-3.507,5.065c-1.168-1.685-3.115-3.117-5.843-4.284c-2.729-1.174-5.198-1.753-7.406-1.753
			c-3.766,0-7.307,0.714-10.618,2.143c-3.312,1.43-6.202,3.376-8.668,5.845c-2.47,2.468-4.418,5.358-5.845,8.667
			c-1.433,3.313-2.146,6.854-2.146,10.62v58.255c0,3.771,0.712,7.305,2.146,10.616c1.427,3.313,3.375,6.204,5.845,8.67
			c2.466,2.47,5.356,4.418,8.668,5.849c3.312,1.427,6.853,2.14,10.618,2.14c5.716,0,9.546-2.019,11.497-6.037v16.517
			c0,3.25-1.139,5.977-3.408,8.183c-2.277,2.212-4.972,3.313-8.086,3.313c-3.25,0-5.976-1.103-8.182-3.313
			c-2.212-2.206-3.312-4.933-3.312-8.183H130.42c0,3.771,0.712,7.308,2.146,10.618c1.427,3.314,3.375,6.201,5.845,8.669
			c2.466,2.471,5.356,4.418,8.668,5.846c3.312,1.429,6.853,2.146,10.62,2.146c3.764,0,7.307-0.718,10.62-2.146
			c3.311-1.428,6.198-3.375,8.668-5.846c2.468-2.468,4.416-5.354,5.846-8.669c1.425-3.312,2.144-6.848,2.144-10.618V85.747H174.451z
			 M169.192,170.303c0,3.247-1.139,5.973-3.408,8.18c-2.277,2.213-4.972,3.316-8.088,3.316c-3.248,0-5.974-1.104-8.187-3.316
			c-2.205-2.207-3.307-4.933-3.307-8.18v-58.254c0-3.119,1.102-5.811,3.307-8.088c2.213-2.268,4.938-3.407,8.187-3.407
			c3.117,0,5.811,1.139,8.088,3.407c2.271,2.277,3.408,4.969,3.408,8.088V170.303z"/>
		<path fill="#116A39" d="M239.568,56.916v35.066c-0.909-1.427-2.659-2.79-5.254-4.093c-2.604-1.294-5.783-1.948-9.549-1.948
			c-3.765,0-7.145,0.716-10.126,2.146c-2.993,1.428-5.491,3.376-7.503,5.841c-2.019,2.468-3.573,5.356-4.679,8.671
			c-1.103,3.311-1.657,6.854-1.657,10.616v57.858c0,3.772,0.615,7.307,1.855,10.616c1.232,3.315,2.95,6.207,5.162,8.672
			c2.206,2.468,4.835,4.416,7.89,5.845c3.055,1.426,6.462,2.144,10.227,2.144c0.741,0,1.444-0.05,2.143-0.095
			c0.699,0.045,1.396,0.095,2.139,0.095c3.771,0,7.179-0.718,10.229-2.144c3.055-1.429,5.684-3.377,7.894-5.845
			c2.21-2.465,3.931-5.355,5.164-8.672c1.233-3.311,1.854-6.844,1.854-10.616V51.653L239.568,56.916z M239.568,171.074
			c0,3.254-1.137,5.976-3.403,8.186c-2.276,2.206-4.97,3.311-8.088,3.311c-3.12,0-5.806-1.104-8.081-3.311
			c-2.271-2.21-3.408-4.932-3.408-8.186v-57.858c0-3.113,1.104-5.807,3.307-8.084c2.21-2.272,4.938-3.411,8.184-3.411
			c3.118,0,5.812,1.139,8.088,3.411c2.268,2.277,3.403,4.971,3.403,8.084L239.568,171.074L239.568,171.074z"/>
		<path fill="#116A39" d="M315.366,145.793c-2.603-2.859-5.521-5.422-8.767-7.695c-3.246-2.273-6.336-4.611-9.253-7.016
			c-2.927-2.4-5.392-5.096-7.404-8.084c-2.012-2.988-3.021-6.686-3.021-11.104c0-3.244,0.942-5.973,2.823-8.183
			c1.889-2.207,4.452-3.312,7.696-3.312c3.12,0,5.684,1.105,7.695,3.312c2.014,2.21,3.018,4.939,3.018,8.183v4.093l15.394,3.504
			v-7.597c0-3.763-0.521-7.305-1.559-10.618c-1.039-3.313-2.628-6.202-4.77-8.671c-2.149-2.464-4.812-4.413-7.988-5.841
			c-3.188-1.429-6.916-2.146-11.207-2.146c-4.152,0-7.887,0.718-11.199,2.146c-3.312,1.428-6.137,3.376-8.472,5.841
			c-2.343,2.47-4.124,5.358-5.356,8.671c-1.24,3.313-1.854,6.854-1.854,10.618c0,4.803,0.684,9.252,2.047,13.348
			c1.365,4.087,3.534,8.018,6.524,11.785c2.344,2.988,5.192,5.682,8.568,8.084c3.375,2.401,6.628,4.865,9.741,7.404
			c3.118,2.53,5.785,5.291,7.998,8.275c2.197,2.995,3.304,6.559,3.304,10.717c0,3.25-1.266,5.975-3.793,8.184
			c-2.535,2.205-5.362,3.309-8.479,3.309c-3.244,0-6.012-1.104-8.282-3.309c-2.271-2.209-3.403-4.934-3.403-8.184v-4.094
			l-15.783-3.504v7.598c0,3.764,0.615,7.307,1.85,10.616c1.231,3.313,3.02,6.207,5.355,8.664c2.343,2.472,5.198,4.42,8.578,5.853
			c3.369,1.424,7.271,2.144,11.687,2.144c4.153,0,7.953-0.72,11.395-2.144c3.445-1.433,6.396-3.381,8.867-5.853
			c2.468-2.457,4.377-5.351,5.749-8.664c1.359-3.31,2.042-6.853,2.042-10.616c-0.133-5.455-1.008-10.23-2.627-14.316
			C320.851,153.1,318.483,149.297,315.366,145.793z"/>
	</g>
	<rect x="123.488" y="46.152" fill="none" width="279.794" height="189.183"/>
</g>
</svg>
